<svg xmlns="http://www.w3.org/2000/svg" viewBox="0 0 1275.91 1029.26"><defs><style>.cls-1{opacity:0.33;}.cls-2{fill:none;stroke:#d6e1ea;stroke-miterlimit:10;stroke-width:6px;}</style></defs><g id="Layer_2" data-name="Layer 2"><g id="Layer_1-2" data-name="Layer 1"><g class="cls-1"><path class="cls-2" d="M1272.91,387.59a20.47,20.47,0,0,0-6-14.48L902.59,9a20.5,20.5,0,0,0-14.48-6H799.22c-46.6,0-81.75,15.62-121,47.15C619.91,2,548.47,1.2,499.46,50.23l-5.52,5.56c-21.78,22-29.12,29.4-61.93,29.4-18.7,0-49.2-25.56-64.87-43.71a20.49,20.49,0,0,0-30-1.12L9,368.58a20.48,20.48,0,0,0,0,29L126.63,515.2l-13,13A102,102,0,0,0,181.8,701,102.09,102.09,0,0,0,317.26,836.76a102,102,0,0,0,138.23,89.39,102.25,102.25,0,0,0,173.67,71l11-11,11.37,11.41a102.31,102.31,0,0,0,172.8-71.85,102.5,102.5,0,0,0,106-20.86,101.48,101.48,0,0,0,31.92-68.12,101.81,101.81,0,0,0,137.29-135.24c24.59-1.42,48.77-11.22,67.3-30.17,38.61-39.48,38.63-103.73-.14-143.38l-12.84-12.86,113-113A20.47,20.47,0,0,0,1272.91,387.59ZM126.14,600.39a60.75,60.75,0,0,1,16.74-43.5L170,529.74s.06,0,.08-.06,0-.06.06-.08l31.06-31.1c.88-.94,1.8-1.84,2.76-2.74a61,61,0,0,1,42-16.62c.66,0,1.34,0,2,0A61.44,61.44,0,0,1,288,585.39l-.35.35a.48.48,0,0,1-.11.09l-58.08,58.1a61.41,61.41,0,0,1-103.33-43.54ZM316.9,788.16a61.44,61.44,0,0,1-87.17-86.55l28.41-28.42c.18-.18.41-.29.59-.47L316.32,615c.05,0,.08-.11.13-.15l.07-.07a61.46,61.46,0,0,1,86.93,86.9Zm60.21,86.89a61.48,61.48,0,0,1-2.6-86.51l42.6-42.61,15.08-15A61.44,61.44,0,0,1,519,817.74l-5.59,5.6c-.18.17-.39.29-.57.46l-28.74,28.76c-.15.16-.24.34-.39.5l-22,22A61.48,61.48,0,0,1,377.11,875.05Zm137.95,92.89c-24.23-23.44-25-62.07-2.08-86.22l29.4-29.41A61.25,61.25,0,0,1,633,934.44a18.62,18.62,0,0,0-15.73,16.65l-16.85,16.85A61.23,61.23,0,0,1,515.06,967.94ZM1137.6,642.66a61.46,61.46,0,0,1-86.73,1.12L939.69,532.52a20.55,20.55,0,1,0-29.18,29l140.18,140.16a61.45,61.45,0,0,1,0,86.91c-23.25,23.24-63.71,23.22-87,0L934.93,759.7s-.06-.09-.1-.13L836,660.72a20.48,20.48,0,0,0-29,29l98.45,98.49a61.52,61.52,0,0,1-3.06,86.74c-23.52,22-60.35,21.92-83.35.5l-50.33-50.34-1.24-1.25h0l-6.34-6.34a20.48,20.48,0,0,0-29,29l7.5,7.51,26.92,27a61.52,61.52,0,0,1-2.18,86.87c-23.78,22.54-60.92,22.56-84.27.42L668,956.05A101.76,101.76,0,0,0,657.7,823.78c-22.68-22.69-53.4-32-83.07-28.91a102.84,102.84,0,0,0,1.9-22A102.26,102.26,0,0,0,461.1,674.28a102.31,102.31,0,0,0-28.71-88.47c-23.37-23.37-55.28-32.64-85.77-28.65a102.13,102.13,0,0,0-170.68-91.28c-1.62,1.5-3.14,3-4.16,4.14l-16.2,16.2L52.45,383.07l298.91-299c18.22,17.3,49.73,42.09,80.65,42.09,49.89,0,67.15-17.43,91-41.55l5.38-5.42C561.09,46.52,606,46.48,646.87,77.44c-7.52,7.08-15.28,14.67-23.39,22.79l-58.27,58.21a102.41,102.41,0,0,0,71.73,173.2c27.38.18,53.28-9.48,73.29-28.62l17.26-17c24.54-24.56,48.34-37,70.79-37h.14c21,.06,42.6,11.06,64.28,32.74l245.91,246a18.67,18.67,0,0,0,1.73,2,19.78,19.78,0,0,0,2,1.72l25.32,25.35C1160.78,580.41,1160.76,619,1137.6,642.66ZM1124.94,486.1,891.67,252.75c-29.61-29.62-60.95-44.66-93.15-44.75h-.24c-33.71,0-67.27,16.49-99.66,48.91l-16.94,16.72a61.37,61.37,0,0,1-86.87-1.9c-22.8-23.82-22.82-61.14-.32-84.63l58-57.88C718.47,63.09,751.39,44,799.22,44h80.41l343.84,343.63Z"/></g></g></g></svg>