<svg xmlns="http://www.w3.org/2000/svg" viewBox="0 0 1271.51 1271.51"><defs><style>.cls-1{opacity:0.33;}.cls-2{fill:none;stroke:#d6e1ea;stroke-miterlimit:10;stroke-width:6px;}</style></defs><g id="Layer_2" data-name="Layer 2"><g id="Layer_1-2" data-name="Layer 1"><g class="cls-1"><path class="cls-2" d="M584.73,1166.45C264,1166.45,3,905.49,3,584.73S264,3,584.73,3s581.72,261,581.72,581.73a20.41,20.41,0,0,1-40.82,0c0-298.26-242.64-540.91-540.9-540.91S43.82,286.47,43.82,584.73s242.65,540.9,540.91,540.9a20.41,20.41,0,0,1,0,40.82Z"/><path class="cls-2" d="M584.73,931.72c-191.34,0-347-155.65-347-347s155.66-347,347-347,347,155.66,347,347a20.41,20.41,0,0,1-40.82,0c0-168.84-137.34-306.17-306.17-306.17S278.56,415.89,278.56,584.73,415.89,890.9,584.73,890.9a20.41,20.41,0,0,1,0,40.82Z"/><path class="cls-2" d="M584.73,482.67a102.06,102.06,0,1,0,102,102.06A102.18,102.18,0,0,0,584.73,482.67Zm0,163.29A61.24,61.24,0,1,1,646,584.73,61.3,61.3,0,0,1,584.73,646Z"/><path class="cls-2" d="M1248.1,1268.51a20.34,20.34,0,0,1-14.43-6L781,809.83l24.14,299.88a20.43,20.43,0,0,1-18.72,22,20.23,20.23,0,0,1-22-18.72L735.86,758c0-.42-.06-.84-.08-1.26h0v-.1c0-.44,0-.88,0-1.34h0v0a20.42,20.42,0,0,1,19.51-19.44h.14a6.7,6.7,0,0,1,1.1,0h.1a8.87,8.87,0,0,0,1.59.1l352.94,32.65a20.42,20.42,0,1,1-3.75,40.66L810.59,781.71l451.94,452a20.41,20.41,0,0,1-14.43,34.84Z"/></g></g></g></svg>