<svg xmlns="http://www.w3.org/2000/svg" viewBox="0 0 828.96 520.85"><defs><style>.cls-1{opacity:0.33;}.cls-2{fill:#177fdd;}.cls-3{fill:#d6e1ea;}</style></defs><g id="Layer_2" data-name="Layer 2"><g id="Layer_1-2" data-name="Layer 1"><g class="cls-1"><polygon class="cls-2" points="0 0 0 0.17 828.8 0.17 828.96 0 0 0"/><polygon class="cls-3" points="0 520.85 308.1 520.85 309.54 519.41 0 519.41 0 520.85"/><polygon class="cls-3" points="309.54 519.41 315.54 513.41 0 513.41 0 519.41 309.54 519.41"/><polygon class="cls-3" points="349.02 479.93 355.02 473.93 0 473.93 0 479.93 349.02 479.93"/><polygon class="cls-3" points="467.47 361.49 473.47 355.49 0 355.49 0 361.49 467.47 361.49"/><polygon class="cls-3" points="546.43 282.53 552.43 276.53 0 276.53 0 282.53 546.43 282.53"/><polygon class="cls-3" points="506.95 322.01 512.95 316.01 0 316.01 0 322.01 506.95 322.01"/><polygon class="cls-3" points="388.5 440.45 394.5 434.45 0 434.45 0 440.45 388.5 440.45"/><polygon class="cls-3" points="427.99 400.97 433.99 394.97 0 394.97 0 400.97 427.99 400.97"/><polygon class="cls-3" points="585.91 243.05 591.91 237.05 0 237.05 0 243.05 585.91 243.05"/><polygon class="cls-3" points="625.39 203.57 631.39 197.57 0 197.57 0 203.57 625.39 203.57"/><polygon class="cls-3" points="664.87 164.09 670.87 158.09 0 158.09 0 164.09 664.87 164.09"/><polygon class="cls-3" points="743.84 85.13 749.84 79.13 0 79.13 0 85.13 743.84 85.13"/><polygon class="cls-3" points="783.32 45.65 789.32 39.65 0 39.65 0 45.65 783.32 45.65"/><polygon class="cls-3" points="0 6.17 822.8 6.17 828.8 0.17 0 0.17 0 6.17"/><polygon class="cls-3" points="704.35 124.61 710.35 118.61 0 118.61 0 124.61 704.35 124.61"/></g></g></g></svg>