<svg xmlns="http://www.w3.org/2000/svg" viewBox="0 0 520.85 1536.91"><defs><style>.cls-1{opacity:0.33;}.cls-2{fill:#177fdd;}.cls-3{fill:#d6e1ea;}</style></defs><g id="Layer_2" data-name="Layer 2"><g id="Layer_1-2" data-name="Layer 1"><g class="cls-1"><polygon class="cls-2" points="0 0 0 1013.54 0.17 1013.71 0.17 0.17 0 0"/><polygon class="cls-3" points="519.41 519.42 519.41 1535.5 520.81 1536.91 520.85 1536.91 520.85 520.86 519.41 519.42"/><polygon class="cls-3" points="513.41 513.42 513.41 1529.47 519.41 1535.5 519.41 519.42 513.41 513.42"/><polygon class="cls-3" points="473.93 473.94 473.93 1489.8 479.93 1495.83 479.93 479.94 473.93 473.94"/><polygon class="cls-3" points="355.49 355.5 355.49 1370.78 361.49 1376.81 361.49 361.5 355.49 355.5"/><polygon class="cls-3" points="276.53 276.53 276.53 1291.43 282.53 1297.46 282.53 282.53 276.53 276.53"/><polygon class="cls-3" points="316.01 316.01 316.01 1331.1 322.01 1337.13 322.01 322.01 316.01 316.01"/><polygon class="cls-3" points="434.45 434.46 434.45 1450.13 440.45 1456.15 440.45 440.46 434.45 434.46"/><polygon class="cls-3" points="394.97 394.98 394.97 1410.45 400.97 1416.48 400.97 400.98 394.97 394.98"/><polygon class="cls-3" points="237.05 237.05 237.05 1251.75 243.05 1257.78 243.05 243.05 237.05 237.05"/><polygon class="cls-3" points="197.57 197.57 197.57 1212.08 203.57 1218.11 203.57 203.57 197.57 197.57"/><polygon class="cls-3" points="158.09 158.09 158.09 1172.4 164.09 1178.43 164.09 164.09 158.09 158.09"/><polygon class="cls-3" points="79.13 79.13 79.13 1093.05 85.13 1099.08 85.13 85.13 79.13 79.13"/><polygon class="cls-3" points="39.65 39.65 39.65 1053.38 45.65 1059.41 45.65 45.65 39.65 39.65"/><polygon class="cls-3" points="0.17 0.17 0.17 1013.71 6.17 1019.74 6.17 6.17 0.17 0.17"/><polygon class="cls-3" points="118.61 118.61 118.61 1132.73 124.61 1138.76 124.61 124.61 118.61 118.61"/></g></g></g></svg>