<svg xmlns="http://www.w3.org/2000/svg" viewBox="0 0 520.85 2088.54"><defs><style>.cls-1{opacity:0.33;}.cls-2{fill:#177fdd;}.cls-3{fill:#d6e1ea;}</style></defs><g id="Layer_2" data-name="Layer 2"><g id="Layer_1-2" data-name="Layer 1"><g class="cls-1"><polygon class="cls-2" points="0 0 0 1565.17 0.17 1565.34 0.17 0.17 0 0"/><polygon class="cls-3" points="519.41 519.42 519.41 2087.14 520.81 2088.54 520.85 2088.54 520.85 520.86 519.41 519.42"/><polygon class="cls-3" points="513.41 513.42 513.41 2081.11 519.41 2087.14 519.41 519.42 513.41 513.42"/><polygon class="cls-3" points="473.93 473.94 473.93 2041.43 479.93 2047.46 479.93 479.94 473.93 473.94"/><polygon class="cls-3" points="355.49 355.5 355.49 1922.41 361.49 1928.44 361.49 361.5 355.49 355.5"/><polygon class="cls-3" points="276.53 276.53 276.53 1843.06 282.53 1849.09 282.53 282.53 276.53 276.53"/><polygon class="cls-3" points="316.01 316.01 316.01 1882.73 322.01 1888.76 322.01 322.01 316.01 316.01"/><polygon class="cls-3" points="434.45 434.46 434.45 2001.76 440.45 2007.79 440.45 440.46 434.45 434.46"/><polygon class="cls-3" points="394.97 394.98 394.97 1962.08 400.97 1968.11 400.97 400.98 394.97 394.98"/><polygon class="cls-3" points="237.05 237.05 237.05 1803.38 243.05 1809.41 243.05 243.05 237.05 237.05"/><polygon class="cls-3" points="197.57 197.57 197.57 1763.71 203.57 1769.74 203.57 203.57 197.57 197.57"/><polygon class="cls-3" points="158.09 158.09 158.09 1724.04 164.09 1730.07 164.09 164.09 158.09 158.09"/><polygon class="cls-3" points="79.13 79.13 79.13 1644.69 85.13 1650.72 85.13 85.13 79.13 79.13"/><polygon class="cls-3" points="39.65 39.65 39.65 1605.01 45.65 1611.04 45.65 45.65 39.65 39.65"/><polygon class="cls-3" points="0.17 0.17 0.17 1565.34 6.17 1571.37 6.17 6.17 0.17 0.17"/><polygon class="cls-3" points="118.61 118.61 118.61 1684.36 124.61 1690.39 124.61 124.61 118.61 118.61"/></g></g></g></svg>