<svg xmlns="http://www.w3.org/2000/svg" viewBox="0 0 1073.48 1073.48"><defs><style>.cls-1{opacity:0.33;}.cls-2{fill:none;stroke:#d6e1ea;stroke-miterlimit:10;stroke-width:6px;}</style></defs><g id="Layer_2" data-name="Layer 2"><g id="Layer_1-2" data-name="Layer 1"><g class="cls-1"><path class="cls-2" d="M1001.61,1070.48H71.87A69,69,0,0,1,3,1001.61V71.87A69,69,0,0,1,71.87,3H485.09A69,69,0,0,1,554,71.87v250a602.27,602.27,0,0,1,63.24,29.86l54.18-85.14-35.18-21.6,18-29.34,98.14,60.26-18,29.34-33.62-20.64L647,369a604.11,604.11,0,0,1,121.66,99.74l88-72-28.21-33.12,26.22-22.33,79.2,93-26.22,22.33L878.93,423l-87.46,71.55,1.3,1.56a603.28,603.28,0,0,1,84.11,134l78.74-29.53-13.28-37.43,32.45-11.52,37.88,106.75-32.45,11.52-13.08-36.86-76.82,28.81a602.43,602.43,0,0,1,29.11,98.71h82.18a68.94,68.94,0,0,1,68.87,68.87v172.17A68.94,68.94,0,0,1,1001.61,1070.48ZM37.44,795v206.61a34.47,34.47,0,0,0,34.43,34.44h929.74a34.48,34.48,0,0,0,34.44-34.44V829.44A34.48,34.48,0,0,0,1001.61,795Zm0-34.43h846.8a568.17,568.17,0,0,0-353.61-410.9l-11.11-4.22V71.87a34.46,34.46,0,0,0-34.43-34.43H71.87A34.46,34.46,0,0,0,37.44,71.87ZM605.61,657.26A51.71,51.71,0,0,1,554,605.61c0-1.38,0-2.74.16-4.1L295,486a85.52,85.52,0,1,1,15.21-30.92l258,115a51.64,51.64,0,1,1,37.45,87.19Zm-7-35.92a17.22,17.22,0,1,0,13.92-31.5l.1,0-14,31.46ZM226.83,381.79a51.65,51.65,0,1,0,51.65,51.65A51.72,51.72,0,0,0,226.83,381.79Z"/></g></g></g></svg>