<svg xmlns="http://www.w3.org/2000/svg" viewBox="0 0 1114.86 1077.9"><defs><style>.cls-1{opacity:0.33;}.cls-2{fill:none;stroke:#d6e1ea;stroke-miterlimit:10;stroke-width:6px;}</style></defs><g id="Layer_2" data-name="Layer 2"><g id="Layer_1-2" data-name="Layer 1"><g class="cls-1"><path class="cls-2" d="M1111.86,1074.9H3v-37H21.48V816.17H206.29v221.77H317.18V557.43H502v480.51H612.87V668.32H797.69v369.62H908.57V298.7h184.81v739.24h18.48Zm-166.33-37h110.89V335.66H945.53Zm-295.69,0H760.72V705.28H649.84Zm-295.7,0H465V594.39H354.14Zm-295.7,0H169.33V853.13H58.44Zm-6.2-485.18L27.68,525.14l342-304L590.74,331.65,882.44,40H779.2V3H945.53V169.33h-37V66.1L598,376.63,375.55,265.38Z"/></g></g></g></svg>