<svg xmlns="http://www.w3.org/2000/svg" xmlns:xlink="http://www.w3.org/1999/xlink" viewBox="0 0 57.02 45.95"><defs><style>.cls-1{fill:url(#linear-gradient);}</style><linearGradient id="linear-gradient" y1="22.97" x2="57.02" y2="22.97" gradientUnits="userSpaceOnUse"><stop offset="0" stop-color="#df615c"/><stop offset="1" stop-color="#f8985e"/></linearGradient></defs><g id="Layer_2" data-name="Layer 2"><g id="Layer_1-2" data-name="Layer 1"><path class="cls-1" d="M57,17.27a.91.91,0,0,0-.27-.65L40.39.27A.91.91,0,0,0,39.74,0h-4a8.12,8.12,0,0,0-5.43,2.12c-2.62-2.16-5.83-2.2-8,0L22,2.37c-1,1-1.3,1.32-2.78,1.32-.84,0-2.21-1.15-2.91-2A.92.92,0,0,0,15,1.68L.27,16.42a.92.92,0,0,0,0,1.3L5.55,23,5,23.58A4.58,4.58,0,0,0,8,31.34a4.51,4.51,0,0,0-.44,2,4.6,4.6,0,0,0,6.52,4.08,4.59,4.59,0,0,0,6.21,4,4.59,4.59,0,0,0,7.8,3.19l.49-.5.51.52a4.6,4.6,0,0,0,7.76-3.23,4.57,4.57,0,0,0,6.19-4,4.59,4.59,0,0,0,6.62-4.11,4.69,4.69,0,0,0-.45-2,4.54,4.54,0,0,0,3-1.35,4.63,4.63,0,0,0,0-6.44L51.68,23l5.07-5.07A.93.93,0,0,0,57,17.27ZM5.53,26.82a2.7,2.7,0,0,1,.75-1.95L7.5,23.65h0l1.4-1.39L9,22.13a2.72,2.72,0,0,1,1.89-.75H11a2.69,2.69,0,0,1,1.92.87,2.76,2.76,0,0,1-.12,3.9l0,0h0l-2.61,2.61a2.76,2.76,0,0,1-4.64-2Zm8.56,8.43a2.74,2.74,0,0,1-3.81,0,2.75,2.75,0,0,1-.1-3.88l1.28-1.28s0,0,0,0l2.59-2.59h0a2.76,2.76,0,1,1,3.9,3.9Zm2.71,3.91a2.77,2.77,0,0,1-.12-3.89l1.91-1.91.68-.68a2.77,2.77,0,0,1,3.78,0,2.77,2.77,0,0,1,.12,3.89l-.25.25,0,0-1.29,1.3a0,0,0,0,0,0,0l-1,1A2.76,2.76,0,0,1,16.8,39.16ZM23,43.33a2.75,2.75,0,0,1-.09-3.87l1.32-1.32a2.72,2.72,0,0,1,1.93-.79,2.73,2.73,0,0,1,2.75,2.76,2.71,2.71,0,0,1-.61,1.71.87.87,0,0,0-.71.75l-.75.76A2.75,2.75,0,0,1,23,43.33Zm28-14.61a2.75,2.75,0,0,1-3.89.05l-5-5a.92.92,0,0,0-.65-.27.89.89,0,0,0-.66.27.92.92,0,0,0,0,1.3L47,31.37a2.74,2.74,0,0,1,.81,1.95,2.7,2.7,0,0,1-.81,2,2.82,2.82,0,0,1-3.9,0L41.85,34h0L37.4,29.53a.91.91,0,0,0-.65-.27.92.92,0,0,0-.65,1.57l4.42,4.42a2.76,2.76,0,0,1-3.88,3.92l-2.26-2.26-.05,0h0L34,36.57a.92.92,0,0,0-1.3,1.3l.34.34,1.21,1.21a2.76,2.76,0,0,1-3.88,3.92l-.55-.55a4.5,4.5,0,0,0,.88-2.68,4.54,4.54,0,0,0-5.07-4.55,4.73,4.73,0,0,0,.08-1,4.59,4.59,0,0,0-5.18-4.43,4.58,4.58,0,0,0-5.14-5.26,5.78,5.78,0,0,0,.08-.6,4.61,4.61,0,0,0-4.45-4.74,4.53,4.53,0,0,0-3.29,1.24L7.58,21l-.73.73L2.22,17.07,15.64,3.64a6,6,0,0,0,3.62,1.89,4.8,4.8,0,0,0,4.09-1.87l.24-.24C25.06,2,27.07,2,28.91,3.34c-.34.32-.69.66-1.05,1L25.24,7a4.6,4.6,0,0,0,3.22,7.78,4.72,4.72,0,0,0,3.3-1.29l.77-.76A4.68,4.68,0,0,1,35.71,11h0a4.26,4.26,0,0,1,2.88,1.47l11,11,.08.09.09.08L51,24.86A2.78,2.78,0,0,1,50.94,28.72Zm-.56-7L39.9,11.21a6,6,0,0,0-4.18-2h0a6.48,6.48,0,0,0-4.48,2.2l-.76.75a2.75,2.75,0,0,1-3.91-3.88l2.6-2.6c3-3,4.44-3.83,6.59-3.83h3.61L54.8,17.27Z"/></g></g></svg>