<svg xmlns="http://www.w3.org/2000/svg" xmlns:xlink="http://www.w3.org/1999/xlink" viewBox="0 0 49.95 55.27"><defs><style>.cls-1{fill:url(#linear-gradient);}</style><linearGradient id="linear-gradient" x1="2.07" y1="50.54" x2="47.88" y2="4.73" gradientUnits="userSpaceOnUse"><stop offset="0" stop-color="#df615c"/><stop offset="1" stop-color="#f8985e"/></linearGradient></defs><g id="Layer_2" data-name="Layer 2"><g id="Layer_1-2" data-name="Layer 1"><path class="cls-1" d="M10.77,49.06H1a1,1,0,0,1-1-1V7.22a1,1,0,0,1,1-1H19.78L19,5.51a1,1,0,0,1-.34-.7,1,1,0,0,1,.27-.73L22.46.32A1,1,0,0,1,23.85.25L34.08,9.12a1,1,0,0,1,.34.75,1,1,0,0,1-.33.76L23.85,19.72a.94.94,0,0,1-.72.25,1,1,0,0,1-.69-.33l-3.54-4A1,1,0,0,1,19,14.24l.79-.7H7.33V41.73h3.44a1,1,0,0,1,1,1v5.33A1,1,0,0,1,10.77,49.06ZM2,47.06H9.77V43.73H6.33a1,1,0,0,1-1-1V12.54a1,1,0,0,1,1-1H22.41a1,1,0,0,1,.66,1.75l-2,1.78,2.21,2.49,8.64-7.67-8.65-7.5L21.08,4.7l2,1.77a1,1,0,0,1,.27,1.1,1,1,0,0,1-.93.65H2Zm24.75,8.21a1,1,0,0,1-.66-.24L15.87,46.15a1,1,0,0,1,0-1.5l10.23-9.1a1.06,1.06,0,0,1,.72-.25,1,1,0,0,1,.69.34l3.54,4A1,1,0,0,1,31,41l-.79.7H42.62V13.54H39.18a1,1,0,0,1-1-1V7.22a1,1,0,0,1,1-1H49a1,1,0,0,1,1,1V48.06a1,1,0,0,1-1,1H30.17l.79.7A1,1,0,0,1,31,51.19L27.48,55A1,1,0,0,1,26.75,55.27ZM18,45.39l8.64,7.5,2.18-2.32-2-1.77a1,1,0,0,1,.66-1.74H48V8.22H40.18v3.32h3.44a1,1,0,0,1,1,1V42.73a1,1,0,0,1-1,1H27.54A1,1,0,0,1,26.88,42l2-1.78-2.21-2.49Z"/></g></g></svg>