<svg xmlns="http://www.w3.org/2000/svg" xmlns:xlink="http://www.w3.org/1999/xlink" viewBox="0 0 49.95 49.95"><defs><style>.cls-1{fill:url(#linear-gradient);}</style><linearGradient id="linear-gradient" x1="1.92" y1="50.34" x2="47.99" y2="4.27" gradientUnits="userSpaceOnUse"><stop offset="0" stop-color="#df615c"/><stop offset="1" stop-color="#f8985e"/></linearGradient></defs><g id="Layer_2" data-name="Layer 2"><g id="Layer_1-2" data-name="Layer 1"><path class="cls-1" d="M42.55,43.55h-16a1,1,0,0,1,0-2h16a1,1,0,0,1,0,2Zm1-13.78a1,1,0,0,0-1-1h-16a1,1,0,0,0,0,2h16A1,1,0,0,0,43.55,29.77Zm0-12.79a1,1,0,0,0-1-1h-16a1,1,0,0,0,0,2h16A1,1,0,0,0,43.55,17ZM50,12.19V47.35a2.61,2.61,0,0,1-2.6,2.6H2.6A2.61,2.61,0,0,1,0,47.35V12.19a2.62,2.62,0,0,1,.45-1.46l4-8.55A3.37,3.37,0,0,1,7.31,0H42.55a3.34,3.34,0,0,1,2.93,2.22l4.13,8.57a.82.82,0,0,1,.06.26A2.56,2.56,0,0,1,50,12.19Zm-2.6-.6H2.6a.6.6,0,0,0-.6.6V22.38H48V12.19A.6.6,0,0,0,47.35,11.59ZM2,35.16H48V24.38H2ZM3.18,9.59H46.81L43.65,3a.5.5,0,0,1,0-.13A1.3,1.3,0,0,0,42.46,2H7.39a1.39,1.39,0,0,0-1.13.93ZM48,47.35V37.16H2V47.35a.6.6,0,0,0,.6.6H47.35A.6.6,0,0,0,48,47.35ZM10.79,17a2.6,2.6,0,1,0-2.6,2.6A2.61,2.61,0,0,0,10.79,17Zm-2,0a.6.6,0,1,1-.6-.6A.6.6,0,0,1,8.79,17Zm2,12.79a2.6,2.6,0,1,0-2.6,2.6A2.6,2.6,0,0,0,10.79,29.77Zm-2,0a.6.6,0,1,1-.6-.6A.6.6,0,0,1,8.79,29.77Zm2,12.78a2.6,2.6,0,1,0-2.6,2.6A2.6,2.6,0,0,0,10.79,42.55Zm-2,0a.6.6,0,0,1-1.2,0,.6.6,0,0,1,1.2,0Z"/></g></g></svg>