<svg xmlns="http://www.w3.org/2000/svg" xmlns:xlink="http://www.w3.org/1999/xlink" viewBox="0 0 53.88 53.88"><defs><style>.cls-1{fill:url(#linear-gradient);}.cls-2{fill:url(#linear-gradient-2);}.cls-3{fill:url(#linear-gradient-3);}.cls-4{fill:url(#linear-gradient-4);}</style><linearGradient id="linear-gradient" y1="24.77" x2="49.54" y2="24.77" gradientUnits="userSpaceOnUse"><stop offset="0" stop-color="#df615c"/><stop offset="1" stop-color="#f8985e"/></linearGradient><linearGradient id="linear-gradient-2" x1="9.99" y1="24.77" x2="39.54" y2="24.77" xlink:href="#linear-gradient"/><linearGradient id="linear-gradient-3" x1="20.42" y1="24.77" x2="29.11" y2="24.77" xlink:href="#linear-gradient"/><linearGradient id="linear-gradient-4" x1="31.2" y1="42.54" x2="53.88" y2="42.54" xlink:href="#linear-gradient"/></defs><g id="Layer_2" data-name="Layer 2"><g id="Layer_1-2" data-name="Layer 1"><path class="cls-1" d="M24.77,49.54A24.77,24.77,0,1,1,49.54,24.77a.87.87,0,1,1-1.74,0,23,23,0,1,0-23,23,.87.87,0,0,1,0,1.74Z"/><path class="cls-2" d="M24.77,39.54A14.78,14.78,0,1,1,39.54,24.77a.87.87,0,0,1-1.74,0,13,13,0,1,0-13,13,.87.87,0,1,1,0,1.74Z"/><path class="cls-3" d="M24.77,20.42a4.35,4.35,0,1,0,4.34,4.35A4.35,4.35,0,0,0,24.77,20.42Zm0,7a2.61,2.61,0,1,1,2.6-2.6A2.6,2.6,0,0,1,24.77,27.37Z"/><path class="cls-4" d="M53,53.88a.85.85,0,0,1-.61-.25L33.12,34.35l1,12.77a.87.87,0,1,1-1.73.14L31.2,32.14v0h0V32h0A.85.85,0,0,1,32,31.2h.13l15,1.39a.88.88,0,0,1,.79.95.86.86,0,0,1-.95.78L34.38,33.15,53.63,52.4A.87.87,0,0,1,53,53.88Z"/></g></g></svg>