<svg xmlns="http://www.w3.org/2000/svg" viewBox="0 0 35.48 35.48"><defs><style>.cls-1{fill:#08083d;}</style></defs><g id="Layer_2" data-name="Layer 2"><g id="Layer_1-2" data-name="Layer 1"><path class="cls-1" d="M17.74,3.2c4.74,0,5.3,0,7.17.1a9.86,9.86,0,0,1,3.29.61,5.47,5.47,0,0,1,2,1.33,5.47,5.47,0,0,1,1.33,2,9.86,9.86,0,0,1,.61,3.29c.08,1.87.1,2.43.1,7.17s0,5.3-.1,7.17a9.86,9.86,0,0,1-.61,3.29,5.91,5.91,0,0,1-3.37,3.37,9.86,9.86,0,0,1-3.29.61c-1.87.08-2.43.1-7.17.1s-5.3,0-7.17-.1a9.86,9.86,0,0,1-3.29-.61,5.47,5.47,0,0,1-2-1.33,5.47,5.47,0,0,1-1.33-2,9.86,9.86,0,0,1-.61-3.29c-.09-1.87-.1-2.43-.1-7.17s0-5.3.1-7.17a9.86,9.86,0,0,1,.61-3.29,5.47,5.47,0,0,1,1.33-2,5.47,5.47,0,0,1,2-1.33,9.86,9.86,0,0,1,3.29-.61c1.87-.09,2.43-.1,7.17-.1m0-3.2c-4.82,0-5.42,0-7.31.11A12.86,12.86,0,0,0,6.12.93,8.53,8.53,0,0,0,3,3a8.53,8.53,0,0,0-2,3.14,12.86,12.86,0,0,0-.82,4.31C0,12.32,0,12.92,0,17.74s0,5.42.11,7.31a12.86,12.86,0,0,0,.82,4.31A8.53,8.53,0,0,0,3,32.5a8.66,8.66,0,0,0,3.14,2,12.86,12.86,0,0,0,4.31.82c1.89.09,2.49.11,7.31.11s5.42,0,7.31-.11a12.86,12.86,0,0,0,4.31-.82,9.12,9.12,0,0,0,5.19-5.19,12.86,12.86,0,0,0,.82-4.31c.09-1.89.11-2.49.11-7.31s0-5.42-.11-7.31a12.86,12.86,0,0,0-.82-4.31A8.66,8.66,0,0,0,32.5,3a8.53,8.53,0,0,0-3.14-2A12.86,12.86,0,0,0,25.05.11C23.16,0,22.56,0,17.74,0Z"/><path class="cls-1" d="M17.74,8.63a9.11,9.11,0,1,0,9.11,9.11A9.11,9.11,0,0,0,17.74,8.63Zm0,15a5.91,5.91,0,1,1,5.91-5.91A5.9,5.9,0,0,1,17.74,23.65Z"/><circle class="cls-1" cx="27.21" cy="8.27" r="2.13"/></g></g></svg>