<svg xmlns="http://www.w3.org/2000/svg" xmlns:xlink="http://www.w3.org/1999/xlink" viewBox="0 0 46.19 46.19"><defs><style>.cls-1{fill:none;stroke-miterlimit:10;stroke-width:1.49px;stroke:url(#linear-gradient);}</style><linearGradient id="linear-gradient" y1="23.09" x2="46.19" y2="23.09" gradientUnits="userSpaceOnUse"><stop offset="0" stop-color="#df615c"/><stop offset="1" stop-color="#f8985e"/></linearGradient></defs><g id="Layer_2" data-name="Layer 2"><g id="Layer_1-2" data-name="Layer 1"><path class="cls-1" d="M9.68,15.64a3,3,0,1,1-3,3A3,3,0,0,1,9.68,15.64ZM26.07,26.07,12.37,20m13.7,4.62a1.49,1.49,0,1,1-1.49,1.49A1.49,1.49,0,0,1,26.07,24.58Zm.75-8.49L30,11.17M27.79,9.83,32,12.44m1,8.72,4.91-4m-1.71-2,3.43,4M37.4,28.08l4.76-1.78M41.34,24,43,28.61m.23,4.91H39A25.33,25.33,0,0,0,23.09,14.3V3A2.24,2.24,0,0,0,20.86.74H3A2.25,2.25,0,0,0,.74,3V43.21A2.24,2.24,0,0,0,3,45.44H43.21a2.23,2.23,0,0,0,2.23-2.23V35.76A2.23,2.23,0,0,0,43.21,33.52Zm-4.17,0H.74"/></g></g></svg>