<svg xmlns="http://www.w3.org/2000/svg" viewBox="0 0 32.02 32.02"><defs><style>.cls-1{fill:#08083d;}</style></defs><g id="Layer_2" data-name="Layer 2"><g id="Layer_1-2" data-name="Layer 1"><path class="cls-1" d="M29.65,0H2.36A2.33,2.33,0,0,0,0,2.31v27.4A2.34,2.34,0,0,0,2.36,32H29.65A2.34,2.34,0,0,0,32,29.71V2.31A2.34,2.34,0,0,0,29.65,0ZM9.5,27.28H4.74V12H9.5ZM7.12,9.92A2.76,2.76,0,1,1,9.87,7.16,2.76,2.76,0,0,1,7.12,9.92ZM27.28,27.28H22.54V19.85c0-1.77,0-4.05-2.47-4.05s-2.85,1.93-2.85,3.93v7.55H12.48V12H17v2.09h.06a5,5,0,0,1,4.5-2.46c4.81,0,5.69,3.16,5.69,7.27Z"/></g></g></svg>