<svg xmlns="http://www.w3.org/2000/svg" xmlns:xlink="http://www.w3.org/1999/xlink" viewBox="0 0 55.73 68.81"><defs><style>.cls-1{fill:url(#linear-gradient);}</style><linearGradient id="linear-gradient" x1="7.95" y1="53.91" x2="47.02" y2="14.84" gradientUnits="userSpaceOnUse"><stop offset="0" stop-color="#df615c"/><stop offset="1" stop-color="#f8985e"/></linearGradient></defs><g id="Layer_2" data-name="Layer 2"><g id="Layer_1-2" data-name="Layer 1"><path class="cls-1" d="M23.27,68.81a.91.91,0,0,1-.39-.08,1,1,0,0,1-.59-1.1l4.79-26H1a1,1,0,0,1-.9-.56,1,1,0,0,1,.11-1L30.83.39a1,1,0,0,1,1.78.75L29.44,23H54.73a1,1,0,0,1,.81,1.58L24.08,68.4A1,1,0,0,1,23.27,68.81ZM3,39.67H28.28a1,1,0,0,1,.77.36,1,1,0,0,1,.22.82L25.07,63.6,52.78,25H28.28a1,1,0,0,1-.75-.35,1,1,0,0,1-.24-.8L30.08,4.63Z"/></g></g></svg>