<svg xmlns="http://www.w3.org/2000/svg" xmlns:xlink="http://www.w3.org/1999/xlink" viewBox="0 0 55.27 55.27"><defs><style>.cls-1{fill:url(#linear-gradient);}.cls-2{fill:url(#linear-gradient-2);}.cls-3{fill:url(#linear-gradient-3);}</style><linearGradient id="linear-gradient" x1="8.1" y1="47.17" x2="47.17" y2="8.1" gradientUnits="userSpaceOnUse"><stop offset="0" stop-color="#df615c"/><stop offset="1" stop-color="#f8985e"/></linearGradient><linearGradient id="linear-gradient-2" x1="15.14" y1="36.09" x2="40.13" y2="11.1" xlink:href="#linear-gradient"/><linearGradient id="linear-gradient-3" x1="23.74" y1="31.85" x2="38.81" y2="16.78" xlink:href="#linear-gradient"/></defs><g id="Layer_2" data-name="Layer 2"><g id="Layer_1-2" data-name="Layer 1"><path class="cls-1" d="M27.64,55.27A27.64,27.64,0,1,1,55.27,27.64,27.66,27.66,0,0,1,27.64,55.27ZM27.64,2A25.64,25.64,0,1,0,53.27,27.64,25.67,25.67,0,0,0,27.64,2Z"/><path class="cls-2" d="M47.17,28.64a1,1,0,0,1-1-1,18.54,18.54,0,1,0-37.07,0,1,1,0,0,1-2,0,20.54,20.54,0,1,1,41.07,0A1,1,0,0,1,47.17,28.64Z"/><path class="cls-3" d="M27,33.18a4.54,4.54,0,0,1-2.1-8.57L39.13,18a1,1,0,0,1,1.21.29,1,1,0,0,1,0,1.25c-7,8.6-9.13,11.18-9.93,12l0,0A4.51,4.51,0,0,1,27,33.18ZM36,21.66,25.74,26.41a2.49,2.49,0,0,0-1.21,1.46,2.52,2.52,0,0,0,.16,1.94,2.56,2.56,0,0,0,3.43,1.09,2.6,2.6,0,0,0,.77-.62l.09-.1C29.41,29.72,32.81,25.58,36,21.66Z"/></g></g></svg>