<svg xmlns="http://www.w3.org/2000/svg" xmlns:xlink="http://www.w3.org/1999/xlink" viewBox="0 0 394.92 58.06"><defs><style>.cls-1{fill:#fff;}.cls-2{fill:url(#linear-gradient);}.cls-3{fill:url(#linear-gradient-2);}.cls-4{fill:url(#linear-gradient-3);}.cls-5{fill:url(#linear-gradient-4);}</style><linearGradient id="linear-gradient" x1="396.79" y1="39.56" x2="346.61" y2="10.59" gradientUnits="userSpaceOnUse"><stop offset="0" stop-color="#df615c"/><stop offset="1" stop-color="#f8985e"/></linearGradient><linearGradient id="linear-gradient-2" x1="0" y1="50.11" x2="13.48" y2="50.11" xlink:href="#linear-gradient"/><linearGradient id="linear-gradient-3" x1="0" y1="29.76" x2="33.9" y2="29.76" xlink:href="#linear-gradient"/><linearGradient id="linear-gradient-4" x1="0" y1="9.34" x2="54.32" y2="9.34" xlink:href="#linear-gradient"/></defs><g id="Layer_2" data-name="Layer 2"><g id="Layer_1-2" data-name="Layer 1"><path class="cls-1" d="M100.93,11H78.51v15.4H98.92v8.2H78.51V57h-9V2.58h31.38Z"/><path class="cls-1" d="M136.09,55.16a24.39,24.39,0,0,1-22.92,0,21,21,0,0,1-8-7.9A22,22,0,0,1,102.21,36a22,22,0,0,1,2.92-11.29,20.89,20.89,0,0,1,8-7.87,24.47,24.47,0,0,1,22.92,0,20.83,20.83,0,0,1,8,7.89A22.17,22.17,0,0,1,147.06,36a22,22,0,0,1-2.92,11.25A20.93,20.93,0,0,1,136.09,55.16Zm-21.27-9.24a14.37,14.37,0,0,0,19.62,0A13.45,13.45,0,0,0,138.29,36a13.43,13.43,0,0,0-3.85-9.9,14.37,14.37,0,0,0-19.62,0A13.47,13.47,0,0,0,111,36,13.49,13.49,0,0,0,114.82,45.92Z"/><path class="cls-1" d="M183.08,52.9Q177.88,58,169.22,58T155.35,52.9q-5.21-5.13-5.21-13.62V15h8.61v23q0,5.46,2.81,8.6a9.8,9.8,0,0,0,7.66,3.13,9.69,9.69,0,0,0,7.65-3.15q2.79-3.15,2.79-8.58V15h8.61V39.28Q188.27,47.77,183.08,52.9Z"/><path class="cls-1" d="M268.44,0l8.62,4.32V57h-6.53l-1.1-4.75a20.54,20.54,0,0,1-14.8,5.81A21,21,0,0,1,239,51.76,21.56,21.56,0,0,1,232.81,36,21.56,21.56,0,0,1,239,20.26,21.05,21.05,0,0,1,254.63,14a20.79,20.79,0,0,1,13.81,4.9ZM245.49,45.86a13.16,13.16,0,0,0,9.79,3.93A13.46,13.46,0,0,0,269.05,36a13.45,13.45,0,0,0-13.77-13.77,13.19,13.19,0,0,0-9.79,3.92A13.48,13.48,0,0,0,241.62,36,13.46,13.46,0,0,0,245.49,45.86Z"/><path class="cls-1" d="M322.66,36.13a23.32,23.32,0,0,1-.19,2.8H288.39a12.37,12.37,0,0,0,12.87,11,13.57,13.57,0,0,0,6.66-1.63,12,12,0,0,0,4.61-4.52h9.11a21.72,21.72,0,0,1-7.94,10.44A21.14,21.14,0,0,1,301.26,58a20.65,20.65,0,0,1-15.37-6.32A21.55,21.55,0,0,1,279.7,36a22.72,22.72,0,0,1,2.81-11.23,20.43,20.43,0,0,1,7.74-7.91,21.53,21.53,0,0,1,11-2.87,21.19,21.19,0,0,1,11.19,3A20.17,20.17,0,0,1,320,25,23.57,23.57,0,0,1,322.66,36.13Zm-21.4-14.35a12.62,12.62,0,0,0-8.2,2.73A12.88,12.88,0,0,0,288.62,32H314a13.24,13.24,0,0,0-4.57-7.47A12.75,12.75,0,0,0,301.26,21.78Z"/><path class="cls-2" d="M384.25,55.33a24.52,24.52,0,0,1-22.33,0,19.78,19.78,0,0,1-7.83-7.59,21.64,21.64,0,0,1-2.85-11.08V2.58l9,4.32V36.09a13.24,13.24,0,0,0,3.6,9.67,13.52,13.52,0,0,0,18.54,0,13.26,13.26,0,0,0,3.58-9.67V2.58h9V36.66a21.64,21.64,0,0,1-2.85,11.08A19.82,19.82,0,0,1,384.25,55.33Z"/><polygon class="cls-3" points="13.48 43.37 0 43.37 0 56.85 13.48 43.37"/><polygon class="cls-4" points="33.9 22.95 0 22.95 0 36.57 20.29 36.57 33.9 22.95"/><polygon class="cls-5" points="0 16.08 0 16.15 40.7 16.15 54.32 2.54 54.32 2.54 13.55 2.54 0 16.08"/><path class="cls-1" d="M225.57,19q-4.32-4.89-11.61-4.89a19.09,19.09,0,0,0-8.31,1.78,16.52,16.52,0,0,0-5.3,4V15h-8.59V57h8.61V34.53a13.32,13.32,0,0,1,3.17-9.13,10.35,10.35,0,0,1,8.11-3.58c3.16,0,5.55,1,7.19,3s2.44,4.87,2.44,8.69V57h8.62V31.72Q229.9,23.88,225.57,19Z"/><path class="cls-1" d="M345.25,14.8c-4.82,0-8.67,1.49-11.56,4.44V15H325.1V57h8.62V34.61c0-3.82.89-6.72,2.69-8.69s4.47-3,8-3H349V14.8Z"/></g></g></svg>