<svg xmlns="http://www.w3.org/2000/svg" xmlns:xlink="http://www.w3.org/1999/xlink" viewBox="0 0 65.4 42.85"><defs><style>.cls-1{fill:none;}.cls-2{fill:url(#linear-gradient);}</style><linearGradient id="linear-gradient" y1="21.43" x2="65.4" y2="21.43" gradientUnits="userSpaceOnUse"><stop offset="0" stop-color="#df615c"/><stop offset="1" stop-color="#f8985e"/></linearGradient></defs><g id="Layer_2" data-name="Layer 2"><g id="Layer_1-2" data-name="Layer 1"><path class="cls-1" d="M16.05,4.89a9.06,9.06,0,0,0-8,4.38Q5.2,13.65,5.2,21.4T8.08,33.57a9,9,0,0,0,8,4.39A9,9,0,0,0,24,33.55q2.88-4.41,2.89-12.15T24,9.28A9,9,0,0,0,16.05,4.89Z"/><path class="cls-2" d="M16.05,0A13.87,13.87,0,0,0,4.32,5.74Q0,11.49,0,21.4T4.33,37.06a13.87,13.87,0,0,0,11.72,5.79A13.76,13.76,0,0,0,27.7,37.06Q32,31.27,32,21.4T27.72,5.74A13.79,13.79,0,0,0,16.05,0ZM24,33.55A9,9,0,0,1,16.05,38a9,9,0,0,1-8-4.39Q5.2,29.18,5.2,21.4T8.08,9.27a9.06,9.06,0,0,1,8-4.38A9,9,0,0,1,24,9.28q2.88,4.4,2.89,12.12T24,33.55ZM36.14.73h13V42.12H44.07V5.44H36.14ZM65.4,35.5v6.62H59.32V35.5Z"/></g></g></svg>