<svg xmlns="http://www.w3.org/2000/svg" xmlns:xlink="http://www.w3.org/1999/xlink" viewBox="0 0 75.28 42.54"><defs><style>.cls-1{fill:url(#linear-gradient);}</style><linearGradient id="linear-gradient" y1="21.27" x2="75.28" y2="21.27" gradientUnits="userSpaceOnUse"><stop offset="0" stop-color="#df615c"/><stop offset="1" stop-color="#f8985e"/></linearGradient></defs><g id="Layer_2" data-name="Layer 2"><g id="Layer_1-2" data-name="Layer 1"><path class="cls-1" d="M15.93,42.54A13.77,13.77,0,0,1,4.3,36.79Q0,31,0,21.24T4.28,5.7A13.8,13.8,0,0,1,15.93,0,13.7,13.7,0,0,1,27.52,5.7q4.25,5.7,4.25,15.54T27.5,36.79A13.67,13.67,0,0,1,15.93,42.54Zm0-4.86a8.92,8.92,0,0,0,7.84-4.37q2.86-4.38,2.87-12.07t-2.87-12a8.91,8.91,0,0,0-7.84-4.36A9,9,0,0,0,8,9.2q-2.88,4.35-2.87,12T8,33.32A9,9,0,0,0,15.93,37.68Zm29-.72H62.48v4.86H34.85V40.16q7.24-7.6,11.21-12a91.82,91.82,0,0,0,6.23-7.58,22.38,22.38,0,0,0,2.86-4.89,11.26,11.26,0,0,0,.61-3.8,6.7,6.7,0,0,0-2-5.07,7.26,7.26,0,0,0-5.26-1.93,7.72,7.72,0,0,0-5.51,2,6.67,6.67,0,0,0-2.1,5.1v1H35.81v-1a11.32,11.32,0,0,1,3.5-8.65A12.91,12.91,0,0,1,48.49,0a12.37,12.37,0,0,1,8.94,3.32,11.33,11.33,0,0,1,3.46,8.54,15.49,15.49,0,0,1-.55,4.21,20.61,20.61,0,0,1-2.26,4.76,57.89,57.89,0,0,1-4.83,6.62Q50.15,31.23,44.9,37Zm24.34,4.86V35.24h6v6.58Z"/></g></g></svg>