<svg xmlns="http://www.w3.org/2000/svg" xmlns:xlink="http://www.w3.org/1999/xlink" viewBox="0 0 77.06 42.54"><defs><style>.cls-1{fill:url(#linear-gradient);}</style><linearGradient id="linear-gradient" y1="21.27" x2="77.06" y2="21.27" gradientUnits="userSpaceOnUse"><stop offset="0" stop-color="#df615c"/><stop offset="1" stop-color="#f8985e"/></linearGradient></defs><g id="Layer_2" data-name="Layer 2"><g id="Layer_1-2" data-name="Layer 1"><path class="cls-1" d="M15.93,42.54A13.77,13.77,0,0,1,4.3,36.79Q0,31,0,21.24T4.28,5.7A13.8,13.8,0,0,1,15.93,0,13.7,13.7,0,0,1,27.52,5.7q4.25,5.7,4.25,15.54T27.5,36.79A13.67,13.67,0,0,1,15.93,42.54Zm0-4.86a8.92,8.92,0,0,0,7.84-4.37q2.86-4.38,2.87-12.07t-2.87-12a8.91,8.91,0,0,0-7.84-4.36A9,9,0,0,0,8,9.2q-2.88,4.35-2.87,12T8,33.32A9,9,0,0,0,15.93,37.68ZM52.47,16.26A12.65,12.65,0,0,1,63.84,29.14a12.73,12.73,0,0,1-4,9.61A13.68,13.68,0,0,1,50,42.54,13,13,0,0,1,36.51,29.81h5a8.25,8.25,0,0,0,2.57,5.72A8.41,8.41,0,0,0,50,37.68a8.39,8.39,0,0,0,6.22-2.46A8.49,8.49,0,0,0,58.68,29a8.11,8.11,0,0,0-2.62-6.21,9.42,9.42,0,0,0-6.67-2.45H44.8v-1L54.31,5.4H37.83V.72H62.24V1.9ZM71,41.82V35.24h6v6.58Z"/></g></g></svg>