<svg xmlns="http://www.w3.org/2000/svg" xmlns:xlink="http://www.w3.org/1999/xlink" viewBox="0 0 223.69 46.7"><defs><style>.cls-1{fill:url(#linear-gradient);}.cls-2{fill:url(#linear-gradient-2);}.cls-3{fill:#08083d;}</style><linearGradient id="linear-gradient" x1="111.96" y1="23.22" x2="223.69" y2="23.22" gradientUnits="userSpaceOnUse"><stop offset="0" stop-color="#f8985e"/><stop offset="1" stop-color="#df615c"/></linearGradient><linearGradient id="linear-gradient-2" x1="14.62" y1="23.72" x2="83.89" y2="23.72" gradientUnits="userSpaceOnUse"><stop offset="0" stop-color="#df615c"/><stop offset="1" stop-color="#f8985e"/></linearGradient></defs><g id="Layer_2" data-name="Layer 2"><g id="Layer_1-2" data-name="Layer 1"><path class="cls-1" d="M171.13,33.35c0-.09-2.21-3.48-4.53-7.13a.3.3,0,0,1,.13-.44,5.37,5.37,0,0,0,3.42-5.22V19.44c0-6-6.85-6-6.85-6h-6.6a.25.25,0,0,0-.28.23v3.24a.32.32,0,0,0,0,.16l3.28,5.23a.3.3,0,0,1-.26.46H156.7a.25.25,0,0,0-.28.23V33.47a.26.26,0,0,0,.28.23H160a.27.27,0,0,0,.29-.23V26.84a.3.3,0,0,1,.3-.3h1.62a.29.29,0,0,1,.26.14l4.33,6.9a.34.34,0,0,0,.26.12h3.87A.22.22,0,0,0,171.13,33.35Zm-7.85-16.13h0c.63,0,3,0,3,2.22v1.12a2.21,2.21,0,0,1-1.74,2.06.28.28,0,0,1-.33-.13l-3.36-5.27h2.41ZM148,31.41h-6.56l-.78,2.14a.28.28,0,0,1-.26.15h-3.56c-.23,0-.35-.15-.26-.32L144.49,13a.3.3,0,0,1,.52,0l7.9,20.36c.09.17,0,.32-.23.32h-3.59a.25.25,0,0,1-.23-.15ZM142.7,28h4.08l-2-6.07Zm40.11-4.25,8.13,9.57c.17.18,0,.38-.24.38h-4.33a.48.48,0,0,1-.23-.09l-5.9-7.29c-.49.55-1,1.22-1.56,1.77v5.38a.26.26,0,0,1-.26.23h-3.33a.27.27,0,0,1-.29-.23V13.69a.26.26,0,0,1,.29-.23h3.33a.25.25,0,0,1,.26.23v9.19l7.6-9.34a.69.69,0,0,1,.23-.08h4.14c.26,0,.4.2.23.37Zm40.88-7a.27.27,0,0,1-.29.23h-3.88V33.47a.26.26,0,0,1-.29.23H216a.26.26,0,0,1-.29-.23V16.93H211.8a.27.27,0,0,1-.29-.23v-3a.26.26,0,0,1,.29-.23h11.6a.26.26,0,0,1,.29.23Zm-91.16-3.89A.27.27,0,0,1,133,13V33.46a.27.27,0,0,1-.27.27H129.2a.27.27,0,0,1-.27-.27v-10c-.61.78-1.24,1.55-1.88,2.3-1.27,1.49-2.55,3-3.8,4.56l-.55.68a.29.29,0,0,1-.43,0l-.55-.68c-1.16-1.44-2.33-2.87-3.49-4.29l-2.18-2.67V33.46a.27.27,0,0,1-.27.27h-3.55a.27.27,0,0,1-.27-.27V13a.27.27,0,0,1,.48-.17l10,12.24Zm66,4.32v5.65h8a.25.25,0,0,1,.26.23v3.21a.26.26,0,0,1-.26.23h-8v3.49h9.6c.18,0,.29.11.29.23v3.3a.26.26,0,0,1-.29.23H195a.27.27,0,0,1-.29-.23V13.69a.26.26,0,0,1,.29-.23H207.9c.18,0,.29.11.29.23V16.9a.26.26,0,0,1-.29.23Z"/><path class="cls-2" d="M45.55,33.35l-4.73-7.43a5.43,5.43,0,0,0,3.74-5.36V19.44c0-6-6.85-6-6.85-6H31.12c-.18,0-.29.11-.29.23V33.47a.26.26,0,0,0,.29.23h3.29a.26.26,0,0,0,.29-.23V26.54h2.09l4.42,7a.34.34,0,0,0,.26.12h3.87A.22.22,0,0,0,45.55,33.35ZM34.7,17.21h3c.64,0,3,0,3,2.22v1.12c0,1.6-1.65,2.21-2.69,2.22H34.7Zm-7.91-.51a.27.27,0,0,1-.29.23H22.63V33.47a.27.27,0,0,1-.29.23H19.07a.27.27,0,0,1-.29-.23V16.93H14.91a.26.26,0,0,1-.29-.23v-3c0-.12.11-.23.29-.23H26.5a.26.26,0,0,1,.29.23ZM74,17.13v5.65h8a.25.25,0,0,1,.26.23v3.21a.25.25,0,0,1-.26.23H74v3.49h9.6a.26.26,0,0,1,.29.23v3.3a.27.27,0,0,1-.29.23H70.42a.26.26,0,0,1-.29-.23V13.69c0-.12.11-.23.29-.23H83.34a.26.26,0,0,1,.29.23V16.9a.27.27,0,0,1-.29.23Zm-24.91-.2a.25.25,0,0,1-.25-.25v-3a.25.25,0,0,1,.26-.23H65.55c.18,0,.29.11.29.23v3a.25.25,0,0,1-.25.25Zm16.5,1.73a.25.25,0,0,1,.25.25v6.6a10.12,10.12,0,0,1-1,4.14A7.94,7.94,0,0,1,57.34,34a7.88,7.88,0,0,1-7.49-4.34,10.12,10.12,0,0,1-1-4.14v-6.6a.25.25,0,0,1,.25-.25h3.35a.25.25,0,0,1,.25.25v6.6A6.45,6.45,0,0,0,53.35,28a4.11,4.11,0,0,0,4,2.2,4.11,4.11,0,0,0,4-2.2A6.35,6.35,0,0,0,62,25.49V18.91a.25.25,0,0,1,.25-.25Z"/><path class="cls-3" d="M97.4,46.7H2a2,2,0,0,1-2-2V2A2,2,0,0,1,2,0H97.4a2,2,0,0,1,2,2V44.72A2,2,0,0,1,97.4,46.7ZM3.94,43.09H95.43a.34.34,0,0,0,.34-.34V3.94a.34.34,0,0,0-.34-.34H3.94a.34.34,0,0,0-.34.34V42.75A.34.34,0,0,0,3.94,43.09Z"/></g></g></svg>